<?xml version="1.0" standalone="no"?>
<!DOCTYPE svg PUBLIC "-//W3C//DTD SVG 20010904//EN"
 "http://www.w3.org/TR/2001/REC-SVG-20010904/DTD/svg10.dtd">
<svg version="1.0" xmlns="http://www.w3.org/2000/svg"
 width="512.000000pt" height="512.000000pt" viewBox="0 0 512.000000 512.000000"
 preserveAspectRatio="xMidYMid meet">

<g transform="translate(0.000000,512.000000) scale(0.100000,-0.100000)"
fill="#141b21" stroke="#FFFFFF">
<path d="M4595 5114 c-195 -30 -483 -159 -800 -358 -183 -114 -178 -109 -124
-137 71 -36 198 -117 293 -188 49 -36 92 -65 95 -64 3 1 62 34 131 73 180 103
430 213 447 197 2 -2 -8 -39 -22 -83 -32 -97 -123 -284 -204 -419 -78 -130
-253 -388 -266 -391 -5 -2 -26 18 -45 43 -61 82 -201 222 -300 302 -226 182
-483 309 -765 379 -176 44 -279 56 -475 56 -195 0 -299 -12 -473 -55 -776
-193 -1344 -816 -1473 -1614 -22 -136 -22 -454 0 -590 81 -503 348 -959 739
-1262 16 -12 26 -27 22 -33 -10 -17 -337 -230 -459 -300 -60 -35 -147 -80
-194 -102 -85 -39 -232 -91 -239 -85 -2 2 6 35 18 73 27 88 110 260 192 399
l65 110 -19 25 c-76 98 -165 229 -209 307 -29 51 -56 90 -61 88 -13 -8 -157
-239 -225 -361 -213 -380 -287 -675 -215 -863 40 -105 132 -197 241 -237 70
-27 252 -24 357 4 459 123 1158 597 2028 1375 223 200 819 794 1027 1024 790
873 1289 1606 1410 2071 28 110 30 283 4 352 -41 109 -132 201 -239 242 -52
20 -197 32 -262 22z m-2937 -1393 c46 -23 67 -46 87 -94 34 -83 16 -140 -77
-244 -160 -177 -262 -386 -302 -619 -9 -49 -16 -116 -16 -149 0 -33 -5 -78
-10 -99 -32 -141 -208 -190 -311 -87 -48 48 -62 100 -54 204 20 267 72 458
182 669 88 170 264 390 338 424 44 19 120 17 163 -5z"/>
<path d="M4385 2668 c-536 -647 -1292 -1403 -1933 -1933 -107 -87 -140 -120
-129 -126 28 -16 280 -22 407 -10 609 59 1144 377 1473 876 151 230 255 495
304 780 20 119 26 526 7 545 -8 8 -43 -28 -129 -132z"/>
</g>
</svg>
